<svg width="80" height="15" viewBox="0 0 80 15" fill="none" xmlns="http://www.w3.org/2000/svg">
<path d="M7.58908 0.0717773C8.26325 0.0717773 8.88605 0.123142 9.45749 0.277238C10.0289 0.379968 10.4976 0.591849 10.915 0.848675C11.3323 1.1055 11.6405 1.47148 11.8524 1.94018C12.0578 2.40889 12.167 2.98033 12.167 3.60313C12.167 4.32866 12.0129 4.95146 11.6469 5.42017C11.3323 5.88888 10.8187 6.30622 10.1894 6.61441C11.0755 6.87123 11.7497 7.33994 12.1606 7.96274C12.5715 8.58554 12.8347 9.36244 12.8347 10.2485C12.8347 10.974 12.6806 11.5968 12.4174 12.1169C12.1606 12.637 11.7432 13.1057 11.2745 13.4139C10.8058 13.7285 10.2344 13.9853 9.61158 14.1394C8.98878 14.2935 8.36598 14.3962 7.74317 14.3962L0.783203 14.4091V0.0717773H7.58908ZM7.17174 5.88888C7.74317 5.88888 8.21188 5.73478 8.57144 5.47153C8.93099 5.20829 9.09151 4.746 9.09151 4.17456C9.09151 3.85995 9.04014 3.55176 8.93741 3.3463C8.83468 3.14084 8.68059 2.98033 8.46871 2.82623C8.26325 2.7235 8.05136 2.62077 7.79454 2.56941C7.53771 2.51804 7.27447 2.51804 6.96628 2.51804H3.955V5.8953C3.955 5.88888 7.17174 5.88888 7.17174 5.88888ZM7.32583 12.0206C7.64044 12.0206 7.94863 11.9692 8.21188 11.9179C8.46871 11.8665 8.73195 11.7638 8.93741 11.6032C9.14287 11.4427 9.30339 11.2886 9.45749 11.0318C9.56021 10.775 9.66294 10.4604 9.66294 10.0944C9.66294 9.36886 9.45749 8.84879 9.04014 8.48281C8.6228 8.1682 8.05136 8.01411 7.3772 8.01411H3.955V12.0142H7.32583V12.0206ZM17.3549 11.9692C17.7722 12.3866 18.395 12.592 19.2233 12.592C19.7947 12.592 20.3148 12.4379 20.7321 12.1747C21.1495 11.8601 21.4063 11.5519 21.509 11.2373H24.0516C23.6343 12.4829 23.0114 13.3689 22.1832 13.9404C21.3549 14.4604 20.3661 14.7686 19.1719 14.7686C18.3436 14.7686 17.6117 14.6145 16.9375 14.3513C16.2634 14.0944 15.7433 13.7285 15.2746 13.2084C14.8059 12.7397 14.4463 12.1683 14.2344 11.4941C13.9776 10.8199 13.8685 10.0944 13.8685 9.25971C13.8685 8.48281 13.9712 7.75086 14.2344 7.07669C14.4977 6.40253 14.8572 5.83109 15.3259 5.31102C15.7947 4.84231 16.3661 4.42497 16.9889 4.16814C17.6631 3.91132 18.3372 3.7508 19.1719 3.7508C20.058 3.7508 20.8349 3.9049 21.509 4.27087C22.1832 4.63685 22.7033 5.04777 23.1206 5.67057C23.5379 6.24201 23.8461 6.91618 24.058 7.64171C24.1607 8.36724 24.2121 9.09919 24.1607 9.92746H16.6293C16.6293 10.775 16.9375 11.5519 17.3549 11.9692ZM20.6294 6.51168C20.2634 6.1457 19.692 5.94024 19.0178 5.94024C18.5491 5.94024 18.1896 6.04297 17.8749 6.19707C17.5603 6.35116 17.3549 6.56304 17.1494 6.7685C16.9439 6.97396 16.8348 7.23721 16.7834 7.49403C16.7321 7.75086 16.6807 7.96274 16.6807 8.1682H21.3549C21.2522 7.39772 20.989 6.87765 20.6294 6.51168ZM16.0579 1.06056H21.875V2.46025H16.0579V1.06056ZM28.2122 0.0717773V5.47153H28.2635C28.6295 4.84873 29.0918 4.43139 29.6632 4.17456C30.2347 3.91774 30.7547 3.75722 31.3262 3.75722C32.1031 3.75722 32.7259 3.85995 33.1946 4.07183C33.6633 4.2773 34.0806 4.59191 34.3375 4.95788C34.5943 5.32386 34.8062 5.78614 34.9089 6.30622C35.0116 6.82629 35.063 7.39772 35.063 8.07189V14.4604H32.2058V8.59196C32.2058 7.70592 32.0517 7.08311 31.7885 6.67219C31.5252 6.26127 31.0694 6.04297 30.3952 6.04297C29.6183 6.04297 29.0469 6.2998 28.7322 6.71714C28.3663 7.18584 28.2122 7.96274 28.2122 9.00288V14.4604H25.355V0.0717773H28.2122ZM37.1497 5.58068C37.4643 5.11198 37.8239 4.80379 38.2926 4.48918C38.7613 4.23235 39.2813 4.02047 39.8528 3.91774C40.4242 3.81501 40.9957 3.76364 41.5671 3.76364C42.0872 3.76364 42.6072 3.81501 43.1787 3.86637C43.6987 3.91774 44.2188 4.07183 44.6362 4.28372C45.1049 4.48918 45.4131 4.80379 45.7277 5.16976C45.9845 5.53574 46.145 6.05581 46.145 6.67861V12.1362C46.145 12.6049 46.1964 13.0736 46.2477 13.4845C46.2991 13.9018 46.4532 14.2614 46.6137 14.4733H43.7052C43.6024 14.3705 43.5511 14.1587 43.4997 14.0046C43.4483 13.8505 43.4483 13.6386 43.4483 13.4845C42.9796 13.9532 42.4596 14.2614 41.8368 14.4733C41.214 14.6787 40.5912 14.7301 39.9684 14.7301C39.4483 14.7301 39.0309 14.6787 38.5687 14.5246C38.1513 14.4219 37.7918 14.21 37.4258 13.9532C37.1112 13.6964 36.8543 13.3818 36.6489 12.9644C36.4948 12.5471 36.3921 12.1362 36.3921 11.5647C36.3921 10.9933 36.4948 10.4732 36.7067 10.1072C36.9121 9.74126 37.1754 9.43307 37.4836 9.16982C37.7982 8.96436 38.2091 8.75248 38.6264 8.64975C39.0438 8.54702 39.4547 8.44429 39.9234 8.39292C40.3408 8.34156 40.7517 8.29019 41.169 8.23883C41.5864 8.18746 41.9459 8.1361 42.2605 8.08473C42.5751 7.982 42.832 7.87927 43.0374 7.71876C43.2429 7.56466 43.2942 7.35278 43.2942 7.04459C43.2942 6.72998 43.2429 6.47315 43.1402 6.31906C43.0374 6.16496 42.8833 6.00445 42.7228 5.90172C42.5687 5.79899 42.3568 5.74762 42.1514 5.69626C41.9459 5.64489 41.6827 5.64489 41.4258 5.64489C40.8544 5.64489 40.4371 5.74762 40.1289 6.01087C39.8143 6.26769 39.6088 6.68503 39.5574 7.20511H36.7003C36.681 6.56304 36.8865 5.99161 37.1497 5.58068ZM42.8127 9.63211C42.6586 9.68347 42.4467 9.73484 42.2413 9.7862C42.0358 9.83757 41.8239 9.83757 41.5671 9.88893C41.3616 9.9403 41.0984 9.9403 40.8929 9.99166C40.6875 10.043 40.4756 10.0944 40.2701 10.1458C40.0647 10.1971 39.8528 10.2999 39.7501 10.4026C39.596 10.5053 39.4932 10.6594 39.3841 10.8199C39.23 11.0254 39.23 11.2373 39.23 11.4941C39.23 11.7509 39.2813 11.9628 39.3841 12.1169C39.4868 12.271 39.5895 12.4315 39.7501 12.5342C39.9041 12.637 40.116 12.6883 40.3215 12.7397C40.527 12.7911 40.7388 12.7911 40.9957 12.7911C41.5671 12.7911 41.9844 12.6883 42.2926 12.5342C42.6072 12.3288 42.8127 12.1169 42.9668 11.8601C43.1209 11.6032 43.2236 11.34 43.2236 11.0832C43.275 10.8263 43.275 10.6145 43.275 10.4604V9.36886C43.1209 9.47159 42.9668 9.58074 42.8127 9.63211ZM50.4468 4.02047V5.47795H50.4982C50.8642 4.85515 51.3265 4.43781 51.8979 4.18099C52.4693 3.92416 53.0921 3.76364 53.6636 3.76364C54.4405 3.76364 55.0633 3.86637 55.532 4.07826C56.0521 4.28372 56.418 4.59833 56.6749 4.9643C56.9317 5.33028 57.1436 5.79257 57.2977 6.31264C57.4004 6.83271 57.4517 7.40415 57.4517 8.07831V14.4668H54.5946V8.59838C54.5946 7.71234 54.4405 7.08953 54.1772 6.67861C53.9204 6.26127 53.4517 6.00445 52.7197 6.00445C51.9428 6.00445 51.3714 6.31906 51.0054 6.78134C50.6395 7.25005 50.4854 8.02695 50.4854 9.06709V14.5246H47.6282V4.02047H50.4468ZM63.8531 5.88888C63.3844 5.88888 63.0249 5.99161 62.7103 6.20349C62.3956 6.40895 62.1388 6.67219 61.9334 7.03175C61.7279 7.34636 61.6187 7.70592 61.516 8.12326C61.4133 8.5406 61.4133 8.90015 61.4133 9.3175C61.4133 9.68347 61.4647 10.0944 61.516 10.4604C61.6187 10.8777 61.7215 11.1859 61.9334 11.5005C62.1388 11.8151 62.3507 12.0719 62.6589 12.2774C62.9735 12.4829 63.3331 12.592 63.8018 12.592C64.4759 12.592 64.996 12.3866 65.4133 12.0206C65.7793 11.6546 66.0361 11.1345 66.0875 10.4604H68.842C68.6365 11.8601 68.1164 12.9002 67.2304 13.6322C66.3443 14.3577 65.2015 14.7237 63.8018 14.7237C63.0249 14.7237 62.2929 14.5696 61.6701 14.3063C60.9959 14.0495 60.4759 13.6835 60.0072 13.2148C59.5385 12.7461 59.1789 12.1747 58.9157 11.5519C58.6588 10.8777 58.5497 10.2035 58.5497 9.42023C58.5497 8.59196 58.6524 7.86001 58.9157 7.18584C59.1725 6.51168 59.4871 5.88888 59.9558 5.3688C60.4245 4.84873 60.9959 4.48276 61.6187 4.17456C62.2929 3.91774 63.0184 3.75722 63.8531 3.75722C64.4759 3.75722 65.0474 3.85995 65.6188 4.01405C66.1902 4.16814 66.7103 4.43139 67.1277 4.73958C67.5964 5.05419 67.9559 5.46511 68.2192 5.98518C68.476 6.45389 68.6365 7.07669 68.6879 7.75086H65.882C65.7729 6.51168 65.0987 5.88888 63.8531 5.88888ZM73.1502 11.9692C73.5676 12.3866 74.2417 12.592 75.0186 12.592C75.59 12.592 76.1101 12.4379 76.5275 12.1747C76.9448 11.8601 77.2016 11.5519 77.3044 11.2373H79.7956C79.3782 12.4829 78.7554 13.3689 77.9272 13.9404C77.0989 14.4604 76.1101 14.7686 74.9159 14.7686C74.0876 14.7686 73.3557 14.6145 72.6815 14.3513C72.0073 14.0944 71.4873 13.7285 71.0186 13.2084C70.5499 12.7397 70.1903 12.1683 69.9784 11.4941C69.7216 10.8199 69.6124 10.0944 69.6124 9.25971C69.6124 8.48281 69.7152 7.75086 69.9784 7.07669C70.2352 6.40253 70.6012 5.83109 71.0699 5.31102C71.5386 4.84231 72.1101 4.42497 72.7329 4.16814C73.407 3.91132 74.1326 3.7508 74.9159 3.7508C75.8019 3.7508 76.5788 3.9049 77.2016 4.27087C77.8758 4.63685 78.3959 5.04777 78.8132 5.67057C79.2306 6.24201 79.5387 6.91618 79.7506 7.64171C79.9561 8.36724 80.0074 9.15056 79.9561 9.97882H72.4247C72.4247 10.775 72.7329 11.5519 73.1502 11.9692ZM76.4761 6.51168C76.1101 6.1457 75.5387 5.94024 74.8645 5.94024C74.3958 5.94024 74.0363 6.04297 73.7216 6.19707C73.407 6.35116 73.1502 6.56304 72.9961 6.7685C72.842 6.97396 72.6815 7.23721 72.6301 7.49403C72.5788 7.75086 72.5274 7.96274 72.5274 8.1682H77.2016C77.0475 7.39772 76.7843 6.87765 76.4761 6.51168Z" fill="black"/>
</svg>
