<svg width="47" height="20" viewBox="0 0 47 20" fill="none" xmlns="http://www.w3.org/2000/svg">
<g clip-path="url(#clip0_1224_44072)">
<path d="M1.30717 9.12005C1.04356 9.10422 0.779962 9.01461 0.553268 8.84418C-0.0582812 8.38373 -0.181294 7.51384 0.279126 6.90229L4.53713 1.2437C4.99755 0.632149 5.86743 0.509136 6.47897 0.969552C7.09053 1.42997 7.21354 2.29985 6.75312 2.91141L2.49336 8.56999C2.2034 8.95482 1.75352 9.14643 1.30541 9.12005H1.30717ZM6.12751 18.1228L10.3872 12.4642C10.8477 11.8527 10.7247 10.9828 10.1131 10.5224C9.50159 10.062 8.6317 10.185 8.17126 10.7965L3.91152 16.4551C3.4511 17.0667 3.57411 17.9366 4.18566 18.397C4.41236 18.5674 4.67596 18.6588 4.93955 18.6729C5.38591 18.6975 5.83755 18.5077 6.12751 18.1228Z" fill="#0E0E0E"/>
<path d="M40.4377 9.101C40.174 9.08517 39.9105 8.99556 39.6838 8.82512C39.0722 8.36468 38.9492 7.49479 39.4097 6.88325L43.6677 1.22466C44.128 0.613105 44.9979 0.490092 45.6095 0.950515C46.2211 1.41093 46.344 2.28081 45.8837 2.89236L41.6239 8.55094C41.3339 8.93584 40.8841 9.12737 40.4359 9.101H40.4377ZM33.3504 18.1231L37.6102 12.4645C38.0705 11.853 37.9475 10.9831 37.336 10.5227C36.7244 10.0623 35.8546 10.1853 35.3941 10.7968L31.1344 16.4554C30.674 17.067 30.797 17.9369 31.4085 18.3973C31.6352 18.5677 31.8988 18.6591 32.1624 18.6732C32.6088 18.6978 33.0604 18.5079 33.3504 18.1231ZM36.5803 9.101C36.844 9.08517 37.1075 8.99556 37.3342 8.82512C37.9458 8.36468 38.0688 7.49479 37.6084 6.88325L33.3486 1.22466C32.8882 0.613105 32.0183 0.490092 31.4068 0.950515C30.7952 1.41093 30.6722 2.28081 31.1327 2.89236L35.3924 8.55094C35.6824 8.93584 36.1323 9.12737 36.5803 9.101ZM44.8556 18.6732C45.1192 18.6573 45.3828 18.5677 45.6095 18.3973C46.2211 17.9369 46.344 17.067 45.8837 16.4554L41.6239 10.7968C41.1634 10.1853 40.2936 10.0623 39.682 10.5227C39.0705 10.9831 38.9475 11.853 39.4079 12.4645L43.6677 18.1231C43.9576 18.5079 44.4075 18.6995 44.8556 18.6732Z" fill="#0E0E0E"/>
<path d="M22.5843 9.101C22.3207 9.08517 22.0571 8.99556 21.8304 8.82512C21.2189 8.36468 21.0958 7.49479 21.5563 6.88325L25.8161 1.22466C26.2764 0.613105 27.1463 0.490092 27.7578 0.950515C28.3695 1.41093 28.4925 2.28081 28.032 2.89236L23.7723 8.55094C23.4823 8.93584 23.0324 9.12737 22.5843 9.101ZM16.5971 18.0915L20.8568 12.4329C21.3173 11.8213 21.1942 10.9515 20.5827 10.491C19.9712 10.0306 19.1013 10.1536 18.6408 10.7652L14.3811 16.4238C13.9207 17.0353 14.0437 17.9052 14.6553 18.3656C14.882 18.5361 15.1455 18.6274 15.4092 18.6415C15.8555 18.6661 16.3071 18.4764 16.5971 18.0915ZM18.8184 9.12034C19.0819 9.10451 19.3456 9.0149 19.5723 8.84439C20.1838 8.38402 20.3068 7.51413 19.8464 6.90258L15.5884 1.24223C15.1279 0.630677 14.2581 0.507665 13.6465 0.968086C13.035 1.42851 12.912 2.29838 13.3724 2.90993L17.6322 8.56852C17.9221 8.95335 18.372 9.14496 18.8201 9.11858L18.8184 9.12034Z" fill="#0E0E0E"/>
</g>
<defs>
<clipPath id="clip0_1224_44072">
<rect width="46.1617" height="19.0508" fill="white" transform="translate(0 0.147949)"/>
</clipPath>
</defs>
</svg>
