<svg width="95" height="17" viewBox="0 0 95 17" fill="none" xmlns="http://www.w3.org/2000/svg">
<path d="M14.7015 0.611328L9.12391 16.7345H6.03025L0.452637 0.611328H9.63418L6.66253 10.4794C6.76791 10.7504 6.87329 11.1042 6.97867 11.5407C7.0991 11.9623 7.21201 12.3988 7.31739 12.8505C7.43783 13.287 7.52815 13.6785 7.58837 14.0247C7.63353 13.6785 7.7088 13.287 7.81418 12.8505C7.93462 12.3988 8.05505 11.9623 8.17549 11.5407C8.29592 11.1042 8.4013 10.7504 8.49163 10.4794L11.7434 0.611328H14.7015Z" fill="black"/>
<path d="M19.9993 4.92228C21.0306 4.92228 21.9135 5.13418 22.6481 5.55799C23.3968 5.96767 23.976 6.56101 24.3857 7.338C24.7954 8.10085 25.0003 9.03324 25.0003 10.1351V11.4913H17.414C17.4423 12.5367 17.7319 13.349 18.2829 13.9282C18.8338 14.4933 19.5967 14.7759 20.5714 14.7759C21.3202 14.7759 21.9841 14.7052 22.5633 14.564C23.1567 14.4086 23.7641 14.1896 24.3857 13.9071V16.0473C23.8206 16.3157 23.2344 16.5135 22.6269 16.6406C22.0195 16.7678 21.2919 16.8313 20.4443 16.8313C19.3283 16.8313 18.3323 16.6194 17.4564 16.1956C16.5947 15.7577 15.9166 15.1008 15.4221 14.2249C14.9418 13.349 14.7017 12.2613 14.7017 10.9616C14.7017 9.64776 14.9206 8.54585 15.3586 7.65585C15.8106 6.75172 16.4322 6.07363 17.2233 5.62156C18.0144 5.15537 18.9398 4.92228 19.9993 4.92228ZM19.9993 6.89299C19.2929 6.89299 18.7137 7.12609 18.2617 7.59228C17.8237 8.04434 17.5624 8.72244 17.4776 9.62657H22.415C22.415 9.08974 22.3232 8.61649 22.1395 8.20681C21.97 7.79712 21.7087 7.47926 21.3555 7.25323C21.0023 7.01307 20.5502 6.89299 19.9993 6.89299Z" fill="black"/>
<path d="M32.9902 4.92228C34.2758 4.92228 35.2788 5.25426 35.9993 5.91823C36.7339 6.5822 37.1012 7.65585 37.1012 9.13919V16.6194H34.4312V9.66895C34.4312 8.8072 34.2617 8.16442 33.9226 7.74061C33.5836 7.30268 33.0467 7.08371 32.3121 7.08371C31.2385 7.08371 30.5039 7.42276 30.1083 8.10085C29.7128 8.76482 29.515 9.73252 29.515 11.004V16.6194H26.845V5.13418H28.9005L29.2819 6.63871H29.4302C29.6845 6.24315 29.9953 5.91823 30.3626 5.66394C30.7299 5.40966 31.1396 5.22601 31.5917 5.11299C32.0437 4.98585 32.5099 4.92228 32.9902 4.92228Z" fill="black"/>
<path d="M45.7385 4.92228C47.024 4.92228 48.0271 5.25426 48.7475 5.91823C49.4821 6.5822 49.8494 7.65585 49.8494 9.13919V16.6194H47.1794V9.66895C47.1794 8.8072 47.0099 8.16442 46.6709 7.74061C46.3318 7.30268 45.795 7.08371 45.0604 7.08371C43.9867 7.08371 43.2521 7.42276 42.8566 8.10085C42.461 8.76482 42.2632 9.73252 42.2632 11.004V16.6194H39.5932V5.13418H41.6487L42.0301 6.63871H42.1785C42.4328 6.24315 42.7436 5.91823 43.1109 5.66394C43.4782 5.40966 43.8878 5.22601 44.3399 5.11299C44.792 4.98585 45.2582 4.92228 45.7385 4.92228Z" fill="black"/>
<path d="M58.3596 4.92228C58.5291 4.92228 58.7269 4.92934 58.9529 4.94347C59.1789 4.95759 59.3697 4.98585 59.5251 5.02823L59.292 7.50752C59.1648 7.47927 58.9953 7.45807 58.7834 7.44395C58.5856 7.41569 58.409 7.40157 58.2536 7.40157C57.8298 7.40157 57.4201 7.4722 57.0246 7.61347C56.6432 7.74061 56.297 7.93839 55.9862 8.20681C55.6896 8.46109 55.4494 8.79308 55.2658 9.20276C55.0962 9.61244 55.0115 10.0998 55.0115 10.6649V16.6194H52.3415V5.13418H54.397L54.7784 7.12609H54.9055C55.1316 6.71641 55.4141 6.3491 55.7532 6.02418C56.0922 5.68513 56.4807 5.41672 56.9186 5.21894C57.3707 5.02116 57.851 4.92228 58.3596 4.92228Z" fill="black"/>
<path d="M70.6484 10.8556C70.6484 11.8163 70.5213 12.6639 70.267 13.3985C70.0127 14.1331 69.6454 14.7617 69.1651 15.2844C68.6989 15.793 68.1197 16.1815 67.4275 16.4499C66.7494 16.7042 65.9936 16.8313 65.1601 16.8313C64.369 16.8313 63.6414 16.7042 62.9775 16.4499C62.3135 16.1815 61.7343 15.793 61.2398 15.2844C60.7595 14.7617 60.3852 14.1331 60.1167 13.3985C59.8483 12.6639 59.7141 11.8163 59.7141 10.8556C59.7141 9.58419 59.9331 8.51054 60.371 7.63466C60.809 6.74466 61.4376 6.07363 62.257 5.62156C63.0905 5.15537 64.0723 4.92228 65.2025 4.92228C66.2761 4.92228 67.2156 5.15537 68.0208 5.62156C68.8402 6.07363 69.4829 6.74466 69.9491 7.63466C70.4153 8.51054 70.6484 9.58419 70.6484 10.8556ZM62.4477 10.8556C62.4477 11.6609 62.5395 12.3531 62.7232 12.9323C62.921 13.4974 63.2176 13.9282 63.6132 14.2249C64.0229 14.5216 64.5456 14.6699 65.1813 14.6699C65.8311 14.6699 66.3538 14.5216 66.7494 14.2249C67.1591 13.9282 67.4557 13.4974 67.6394 12.9323C67.823 12.3531 67.9148 11.6609 67.9148 10.8556C67.9148 10.0363 67.816 9.35109 67.6182 8.80014C67.4345 8.23506 67.1379 7.81125 66.7282 7.52871C66.3326 7.23204 65.817 7.08371 65.1813 7.08371C64.2206 7.08371 63.5214 7.40863 63.0834 8.05847C62.6596 8.70831 62.4477 9.6407 62.4477 10.8556Z" fill="black"/>
<path d="M77.1382 4.92228C78.6215 4.92228 79.7446 5.2472 80.5075 5.89704C81.2845 6.53276 81.673 7.53577 81.673 8.90609V16.6194H79.787L79.2572 15.0302H79.1725C78.8476 15.4398 78.5085 15.7859 78.1553 16.0685C77.8163 16.3369 77.4207 16.5276 76.9687 16.6406C76.5307 16.7678 75.9939 16.8313 75.3582 16.8313C74.6801 16.8313 74.0656 16.7042 73.5146 16.4499C72.9778 16.1956 72.554 15.8071 72.2432 15.2844C71.9324 14.7476 71.777 14.0766 71.777 13.2713C71.777 12.0847 72.2079 11.1947 73.0696 10.6013C73.9455 9.99387 75.2664 9.66189 77.0322 9.60538L79.0241 9.54181V8.96966C79.0241 8.23506 78.8475 7.71236 78.4944 7.40157C78.1412 7.09077 77.6468 6.93538 77.011 6.93538C76.4318 6.93538 75.8738 7.02014 75.337 7.18966C74.8002 7.35919 74.2775 7.55696 73.7689 7.783L72.9213 5.91823C73.4864 5.62156 74.1291 5.3814 74.8496 5.19775C75.5842 5.0141 76.3471 4.92228 77.1382 4.92228ZM77.6256 11.2371C76.453 11.2794 75.6407 11.4843 75.1887 11.8516C74.7366 12.2048 74.5106 12.6851 74.5106 13.2925C74.5106 13.8294 74.673 14.2178 74.9979 14.458C75.3229 14.6982 75.7396 14.8182 76.2482 14.8182C77.0252 14.8182 77.6821 14.5993 78.2189 14.1613C78.7557 13.7093 79.0241 13.0453 79.0241 12.1694V11.1947L77.6256 11.2371Z" fill="black"/>
<path d="M87.9642 16.8313C86.6363 16.8313 85.5556 16.3369 84.7221 15.348C83.9027 14.345 83.493 12.8617 83.493 10.898C83.493 8.93435 83.9098 7.45101 84.7433 6.44799C85.5768 5.43085 86.6716 4.92228 88.0278 4.92228C88.5929 4.92228 89.0873 4.99997 89.5111 5.15537C89.9491 5.29664 90.3234 5.49442 90.6342 5.74871C90.945 6.00299 91.2064 6.28553 91.4183 6.59633H91.5454C91.503 6.39855 91.4607 6.09482 91.4183 5.68513C91.3759 5.27545 91.3547 4.89402 91.3547 4.54085V0.514648H94.0247V16.6194H91.948L91.4607 15.1149H91.3547C91.1428 15.4257 90.8814 15.7153 90.5707 15.9837C90.2599 16.238 89.8926 16.4429 89.4688 16.5982C89.0449 16.7536 88.5434 16.8313 87.9642 16.8313ZM88.7695 14.6699C89.7583 14.6699 90.4576 14.3874 90.8673 13.8223C91.277 13.2572 91.4818 12.4025 91.4818 11.2582V10.9192C91.4818 9.67601 91.2841 8.72951 90.8885 8.07966C90.5071 7.42982 89.7866 7.1049 88.7271 7.1049C87.9218 7.1049 87.3002 7.44395 86.8623 8.12204C86.4244 8.78601 86.2054 9.72546 86.2054 10.9404C86.2054 12.1553 86.4244 13.0806 86.8623 13.7163C87.3002 14.3521 87.936 14.6699 88.7695 14.6699Z" fill="black"/>
</svg>
