<svg width="122" height="26" viewBox="0 0 122 26" fill="none" xmlns="http://www.w3.org/2000/svg">
<path d="M13.0496 0.978125C11.3218 0.442598 9.54844 2.41802 9.73396 3.36169C9.75593 3.4735 9.82517 3.5675 9.89566 3.65703C11.115 5.20564 14.0555 8.67009 13.4999 13.8163C12.7847 20.4424 8.72433 23.0632 7.88592 23.54C22.8339 18.5177 14.9648 1.57174 13.0496 0.978125Z" fill="black"/>
<path d="M6.36492 6.20187C5.63559 6.17359 5.14652 7.11174 5.29487 7.48062C5.31749 7.53687 5.36689 7.57567 5.41555 7.61182C6.09849 8.11918 7.22362 8.86302 7.9078 11.2455C8.66308 13.8756 8.18073 17.418 8.05974 17.8069C12.1376 10.8047 7.18756 6.23377 6.36492 6.20187Z" fill="black"/>
<path d="M25.9483 9.37387V18.6733H23.4105V9.37387H25.9483ZM24.6879 5.72903C25.0626 5.72903 25.3862 5.81986 25.6587 6.00154C25.9313 6.17186 26.0675 6.49547 26.0675 6.97236C26.0675 7.4379 25.9313 7.76151 25.6587 7.94319C25.3862 8.12486 25.0626 8.2157 24.6879 8.2157C24.3019 8.2157 23.9726 8.12486 23.7001 7.94319C23.4389 7.76151 23.3083 7.4379 23.3083 6.97236C23.3083 6.49547 23.4389 6.17186 23.7001 6.00154C23.9726 5.81986 24.3019 5.72903 24.6879 5.72903ZM30.4735 18.6733L26.9308 9.37387H29.5878L31.3762 14.6708C31.4443 14.8752 31.5011 15.0909 31.5465 15.318C31.6033 15.5451 31.643 15.7665 31.6657 15.9823C31.6998 16.198 31.7225 16.3967 31.7338 16.5784H31.802C31.8133 16.3854 31.836 16.181 31.8701 15.9653C31.9042 15.7495 31.9439 15.5338 31.9893 15.318C32.0461 15.0909 32.1086 14.8752 32.1767 14.6708L33.965 9.37387H36.622L33.0794 18.6733H30.4735ZM46.0635 14.0066C46.0635 14.7787 45.9556 15.4656 45.7399 16.0674C45.5355 16.6692 45.2346 17.1802 44.8372 17.6003C44.4511 18.0091 43.9799 18.3213 43.4235 18.5371C42.8671 18.7415 42.237 18.8437 41.533 18.8437C40.8857 18.8437 40.284 18.7415 39.7276 18.5371C39.1825 18.3213 38.7113 18.0091 38.3139 17.6003C37.9165 17.1802 37.6043 16.6692 37.3772 16.0674C37.1614 15.4656 37.0535 14.7787 37.0535 14.0066C37.0535 12.9733 37.2352 12.1047 37.5986 11.4007C37.9619 10.6853 38.4842 10.1403 39.1655 9.76561C39.8468 9.3909 40.653 9.20355 41.5841 9.20355C42.4584 9.20355 43.2305 9.3909 43.9004 9.76561C44.5703 10.1403 45.0983 10.6853 45.4844 11.4007C45.8704 12.1047 46.0635 12.9733 46.0635 14.0066ZM39.6424 14.0066C39.6424 14.6197 39.7049 15.1364 39.8298 15.5565C39.966 15.9653 40.1761 16.2775 40.4599 16.4932C40.7438 16.6976 41.1128 16.7998 41.567 16.7998C42.0212 16.7998 42.3846 16.6976 42.6571 16.4932C42.9409 16.2775 43.1453 15.9653 43.2702 15.5565C43.4065 15.1364 43.4746 14.6197 43.4746 14.0066C43.4746 13.3934 43.4065 12.8825 43.2702 12.4737C43.1453 12.0649 42.9409 11.7584 42.6571 11.554C42.3732 11.3496 42.0042 11.2474 41.55 11.2474C40.8801 11.2474 40.3918 11.4802 40.0852 11.9457C39.79 12.3999 39.6424 13.0868 39.6424 14.0066ZM52.6743 9.20355C52.7992 9.20355 52.9468 9.20923 53.1171 9.22059C53.2874 9.23194 53.4237 9.24897 53.5259 9.27168L53.3385 11.6562C53.259 11.6335 53.1398 11.6164 52.9809 11.6051C52.8332 11.5824 52.7027 11.571 52.5891 11.571C52.2598 11.571 51.9419 11.6164 51.6353 11.7073C51.3288 11.7867 51.0506 11.9173 50.8008 12.099C50.5623 12.2807 50.3693 12.5248 50.2217 12.8314C50.0854 13.1266 50.0173 13.4956 50.0173 13.9384V18.6733H47.4795V9.37387H49.4041L49.7788 10.9408H49.8981C50.0797 10.6229 50.3068 10.3333 50.5793 10.0722C50.8519 9.81103 51.1641 9.60097 51.5161 9.442C51.8795 9.28304 52.2655 9.20355 52.6743 9.20355ZM54.5666 9.37387H57.3428L59.0971 14.6027C59.1538 14.773 59.1993 14.9433 59.2333 15.1137C59.2787 15.284 59.3128 15.46 59.3355 15.6416C59.3696 15.8233 59.3923 16.0163 59.4036 16.2207H59.4547C59.4888 15.9255 59.5342 15.6473 59.591 15.3862C59.6591 15.1137 59.7329 14.8525 59.8124 14.6027L61.5326 9.37387H64.2578L60.3234 19.8656C60.0849 20.5014 59.7727 21.0351 59.3866 21.4666C59.0119 21.8981 58.5748 22.2217 58.0751 22.4374C57.5755 22.6531 57.0305 22.761 56.4401 22.761C56.1562 22.761 55.9064 22.744 55.6907 22.7099C55.4863 22.6872 55.3046 22.6588 55.1456 22.6248V20.615C55.2705 20.6377 55.4182 20.6604 55.5885 20.6831C55.7702 20.7058 55.9575 20.7172 56.1505 20.7172C56.5025 20.7172 56.8034 20.6434 57.0532 20.4958C57.3144 20.3482 57.5301 20.1438 57.7004 19.8826C57.8708 19.6328 58.007 19.3603 58.1092 19.0651L58.2625 18.6052L54.5666 9.37387ZM70.94 10.7024H68.6407V18.6733H67.1419V10.7024H65.5409V10.0041L67.1419 9.4931V8.9651C67.1419 8.18163 67.2554 7.54577 67.4825 7.05752C67.721 6.56927 68.0616 6.2116 68.5045 5.98451C68.9473 5.75741 69.481 5.64387 70.1055 5.64387C70.4688 5.64387 70.7981 5.67793 71.0933 5.74606C71.3999 5.80283 71.661 5.87096 71.8768 5.95044L71.485 7.12565C71.3034 7.06888 71.0933 7.0121 70.8549 6.95533C70.6164 6.89856 70.3723 6.87017 70.1225 6.87017C69.6229 6.87017 69.2482 7.04049 68.9984 7.38113C68.7599 7.71042 68.6407 8.23273 68.6407 8.94807V9.54419H70.94V10.7024ZM74.0909 9.54419V18.6733H72.5921V9.54419H74.0909ZM73.3586 6.12076C73.5857 6.12076 73.7844 6.20024 73.9547 6.35921C74.1364 6.50682 74.2272 6.74527 74.2272 7.07455C74.2272 7.39248 74.1364 7.63093 73.9547 7.7899C73.7844 7.94886 73.5857 8.02835 73.3586 8.02835C73.1088 8.02835 72.8987 7.94886 72.7284 7.7899C72.5581 7.63093 72.4729 7.39248 72.4729 7.07455C72.4729 6.74527 72.5581 6.50682 72.7284 6.35921C72.8987 6.20024 73.1088 6.12076 73.3586 6.12076ZM80.6919 9.37387C81.782 9.37387 82.6052 9.64071 83.1615 10.1744C83.7179 10.6967 83.9961 11.5483 83.9961 12.7292V18.6733H82.5143V12.8314C82.5143 12.0933 82.3497 11.5426 82.0204 11.1793C81.6911 10.8159 81.1745 10.6342 80.4705 10.6342C79.4599 10.6342 78.7616 10.9181 78.3756 11.4858C77.9895 12.0536 77.7965 12.8711 77.7965 13.9384V18.6733H76.2976V9.54419H77.5069L77.7283 10.7875H77.8135C78.0179 10.4696 78.2677 10.2084 78.5629 10.0041C78.8695 9.78832 79.2044 9.62935 79.5678 9.52716C79.9311 9.42497 80.3058 9.37387 80.6919 9.37387ZM89.6024 9.3909C90.7152 9.3909 91.5384 9.63503 92.0721 10.1233C92.6057 10.6115 92.8726 11.3893 92.8726 12.4567V18.6733H91.7825L91.493 17.3789H91.4249C91.1637 17.7082 90.8912 17.9864 90.6073 18.2135C90.3348 18.4292 90.0169 18.5882 89.6535 18.6904C89.3015 18.7926 88.8701 18.8437 88.3591 18.8437C87.8141 18.8437 87.3201 18.7471 86.8773 18.5541C86.4458 18.3611 86.1052 18.0659 85.8554 17.6685C85.6056 17.2597 85.4807 16.7487 85.4807 16.1356C85.4807 15.2272 85.8384 14.5289 86.5537 14.0406C87.269 13.541 88.3704 13.2685 89.8579 13.2231L91.4078 13.172V12.627C91.4078 11.8662 91.2432 11.3382 90.9139 11.043C90.5846 10.7478 90.1191 10.6002 89.5173 10.6002C89.0404 10.6002 88.5862 10.674 88.1547 10.8216C87.7232 10.9578 87.3201 11.1168 86.9454 11.2985L86.4856 10.1744C86.883 9.95864 87.3542 9.77696 87.8992 9.62935C88.4443 9.47039 89.012 9.3909 89.6024 9.3909ZM90.0453 14.2621C88.9098 14.3075 88.1206 14.4891 87.6778 14.8071C87.2463 15.125 87.0306 15.5735 87.0306 16.1526C87.0306 16.6636 87.1839 17.0383 87.4905 17.2767C87.8084 17.5152 88.2115 17.6344 88.6997 17.6344C89.4719 17.6344 90.1134 17.4243 90.6243 17.0042C91.1353 16.5727 91.3908 15.9142 91.3908 15.0285V14.211L90.0453 14.2621ZM99.4051 9.37387C100.495 9.37387 101.318 9.64071 101.875 10.1744C102.431 10.6967 102.709 11.5483 102.709 12.7292V18.6733H101.228V12.8314C101.228 12.0933 101.063 11.5426 100.734 11.1793C100.404 10.8159 99.8877 10.6342 99.1837 10.6342C98.1732 10.6342 97.4748 10.9181 97.0888 11.4858C96.7027 12.0536 96.5097 12.8711 96.5097 13.9384V18.6733H95.0109V9.54419H96.2202L96.4416 10.7875H96.5267C96.7311 10.4696 96.9809 10.2084 97.2761 10.0041C97.5827 9.78832 97.9177 9.62935 98.281 9.52716C98.6444 9.42497 99.0191 9.37387 99.4051 9.37387ZM108.52 18.8437C107.714 18.8437 106.993 18.679 106.357 18.3497C105.732 18.0204 105.239 17.5095 104.875 16.8169C104.523 16.1242 104.347 15.2386 104.347 14.1599C104.347 13.0358 104.535 12.1217 104.909 11.4177C105.284 10.7137 105.789 10.1971 106.425 9.8678C107.072 9.53852 107.805 9.37387 108.622 9.37387C109.088 9.37387 109.536 9.42497 109.968 9.52716C110.399 9.618 110.751 9.73154 111.024 9.8678L110.564 11.1111C110.291 11.0089 109.973 10.9124 109.61 10.8216C109.247 10.7308 108.906 10.6853 108.588 10.6853C107.975 10.6853 107.47 10.8159 107.072 11.0771C106.675 11.3382 106.38 11.7243 106.187 12.2352C105.994 12.7462 105.897 13.3821 105.897 14.1428C105.897 14.8695 105.994 15.4884 106.187 15.9993C106.38 16.5103 106.669 16.8963 107.055 17.1575C107.441 17.4186 107.924 17.5492 108.503 17.5492C109.003 17.5492 109.44 17.4981 109.814 17.3959C110.201 17.2937 110.553 17.1688 110.87 17.0212V18.3497C110.564 18.5087 110.223 18.6279 109.849 18.7074C109.485 18.7982 109.042 18.8437 108.52 18.8437ZM115.886 9.37387C116.669 9.37387 117.339 9.54419 117.896 9.88483C118.463 10.2255 118.895 10.708 119.19 11.3326C119.497 11.9457 119.65 12.6667 119.65 13.4956V14.3983H113.399C113.422 15.4316 113.683 16.2207 114.183 16.7658C114.694 17.2994 115.403 17.5663 116.312 17.5663C116.891 17.5663 117.402 17.5152 117.845 17.413C118.299 17.2994 118.764 17.1405 119.241 16.9361V18.2475C118.776 18.4519 118.316 18.5995 117.862 18.6904C117.407 18.7926 116.868 18.8437 116.244 18.8437C115.381 18.8437 114.614 18.6677 113.944 18.3157C113.286 17.9637 112.769 17.4414 112.394 16.7487C112.031 16.0447 111.849 15.1875 111.849 14.1769C111.849 13.1777 112.014 12.3204 112.343 11.6051C112.684 10.8897 113.155 10.339 113.757 9.95296C114.37 9.5669 115.08 9.37387 115.886 9.37387ZM115.869 10.6002C115.153 10.6002 114.586 10.8329 114.166 11.2985C113.757 11.7527 113.513 12.3885 113.433 13.2061H118.083C118.083 12.6838 118.003 12.2296 117.845 11.8435C117.686 11.4575 117.441 11.1566 117.112 10.9408C116.794 10.7137 116.38 10.6002 115.869 10.6002Z" fill="black"/>
</svg>
