<svg width="14" height="15" viewBox="0 0 14 15" fill="none" xmlns="http://www.w3.org/2000/svg">
<path fill-rule="evenodd" clip-rule="evenodd" d="M8.2124 14.1893H5.54573C3.03158 14.1893 1.7745 14.1893 0.993451 13.4082C0.212402 12.6272 0.212402 11.3701 0.212402 8.85596V6.18929C0.212402 3.67513 0.212402 2.41805 0.993451 1.63701C1.7745 0.855957 3.0382 0.855957 5.5656 0.855957C5.9696 0.855957 6.29333 0.855957 6.56574 0.867064C6.55677 0.920352 6.55207 0.974709 6.55189 1.02967L6.54573 2.91927C6.54567 3.65067 6.54562 4.29705 6.61567 4.81806C6.6916 5.38281 6.86594 5.94747 7.32678 6.40831C7.78763 6.86916 8.35229 7.0435 8.91704 7.11942C9.43805 7.18947 10.0844 7.18942 10.8158 7.18936L10.8791 7.18936H13.5173C13.5457 7.54554 13.5457 7.98269 13.5457 8.56456V8.85596C13.5457 11.3701 13.5457 12.6272 12.7647 13.4082C11.9836 14.1893 10.7266 14.1893 8.2124 14.1893ZM2.37907 9.18929C2.37907 8.91315 2.60293 8.68929 2.87907 8.68929H8.2124C8.48854 8.68929 8.7124 8.91315 8.7124 9.18929C8.7124 9.46543 8.48854 9.68929 8.2124 9.68929H2.87907C2.60293 9.68929 2.37907 9.46543 2.37907 9.18929ZM2.37907 11.5226C2.37907 11.2465 2.60293 11.0226 2.87907 11.0226H6.54574C6.82188 11.0226 7.04574 11.2465 7.04574 11.5226C7.04574 11.7988 6.82188 12.0226 6.54574 12.0226H2.87907C2.60293 12.0226 2.37907 11.7988 2.37907 11.5226Z" fill="black"/>
<path d="M11.7802 4.60039L9.14103 2.22513C8.38912 1.54841 8.01317 1.21005 7.55188 1.03304L7.54574 2.85603C7.54574 4.42738 7.54574 5.21305 8.03389 5.70121C8.52205 6.18936 9.30772 6.18936 10.8791 6.18936H13.2658C13.0241 5.71988 12.5913 5.33038 11.7802 4.60039Z" fill="black"/>
</svg>
