<svg width="34" height="34" viewBox="0 0 34 34" fill="none" xmlns="http://www.w3.org/2000/svg">
<rect width="34" height="34" rx="17" fill="#F5F5F5"/>
<path fill-rule="evenodd" clip-rule="evenodd" d="M17 9.29175C12.7428 9.29175 9.29163 12.7429 9.29163 17.0001C9.29163 18.2343 9.58123 19.3991 10.0956 20.4318C10.3021 20.8463 10.3816 21.342 10.2513 21.8288L9.75498 23.6838C9.66382 24.0245 9.97551 24.3362 10.3162 24.2451L12.1712 23.7487C12.6581 23.6185 13.1537 23.698 13.5682 23.9044C14.601 24.4188 15.7657 24.7084 17 24.7084C21.2572 24.7084 24.7083 21.2573 24.7083 17.0001C24.7083 12.7429 21.2572 9.29175 17 9.29175ZM8.04163 17.0001C8.04163 12.0525 12.0524 8.04175 17 8.04175C21.9475 8.04175 25.9583 12.0525 25.9583 17.0001C25.9583 21.9476 21.9475 25.9584 17 25.9584C15.568 25.9584 14.2129 25.622 13.0109 25.0233C12.8315 24.934 12.6484 24.915 12.4943 24.9562L10.6393 25.4526C9.36943 25.7924 8.20769 24.6306 8.54746 23.3607L9.0438 21.5057C9.08502 21.3516 9.06607 21.1685 8.97673 20.9891C8.37805 19.7871 8.04163 18.432 8.04163 17.0001ZM13.0416 15.7501C13.0416 15.4049 13.3214 15.1251 13.6666 15.1251H20.3333C20.6785 15.1251 20.9583 15.4049 20.9583 15.7501C20.9583 16.0953 20.6785 16.3751 20.3333 16.3751H13.6666C13.3214 16.3751 13.0416 16.0953 13.0416 15.7501ZM13.0416 18.6667C13.0416 18.3216 13.3214 18.0417 13.6666 18.0417H18.25C18.5951 18.0417 18.875 18.3216 18.875 18.6667C18.875 19.0119 18.5951 19.2917 18.25 19.2917H13.6666C13.3214 19.2917 13.0416 19.0119 13.0416 18.6667Z" fill="black"/>
</svg>
