<svg width="17" height="17" viewBox="0 0 17 17" fill="none" xmlns="http://www.w3.org/2000/svg">
<g clip-path="url(#clip0_128_608)">
<path fill-rule="evenodd" clip-rule="evenodd" d="M6.82492 2.77914L6.88975 2.76177C7.93551 2.48155 8.76083 2.2604 9.38321 2.17858C9.99494 2.09817 10.5718 2.12759 10.9551 2.54958C11.0104 2.61037 11.0607 2.67545 11.1055 2.74421C11.4183 3.22313 11.2966 3.78726 11.0597 4.35378C10.8189 4.92991 10.39 5.66449 9.84694 6.5945L8.90673 8.20477L10.5261 9.12921C11.4614 9.6631 12.2001 10.0848 12.6968 10.4633C13.1851 10.8355 13.5726 11.2632 13.5412 11.8343C13.5367 11.9163 13.5257 11.9979 13.5083 12.0781C13.3873 12.6352 12.9024 12.9491 12.3325 13.1854C11.7526 13.4257 10.9272 13.6468 9.88147 13.927L9.81666 13.9444C8.7709 14.2246 7.94557 14.4458 7.32319 14.5276C6.71146 14.608 6.13458 14.5786 5.75127 14.1566C5.69605 14.0958 5.64575 14.0307 5.60085 13.962C5.28814 13.483 5.40984 12.9189 5.64667 12.3524C5.88751 11.7763 6.31643 11.0417 6.85946 10.1117L7.79967 8.50141L6.18029 7.57698C5.24501 7.04308 4.50627 6.62138 4.00962 6.24285C3.52126 5.87064 3.1338 5.44294 3.16516 4.87183C3.16966 4.78984 3.18068 4.70833 3.19811 4.62806C3.31907 4.07096 3.80395 3.75704 4.37393 3.52081C4.95383 3.28048 5.77916 3.05934 6.82492 2.77914ZM8.20632 7.80495L9.1334 6.21717C9.69726 5.25147 10.0981 4.56323 10.3157 4.04274C10.5398 3.50661 10.5038 3.29763 10.4303 3.18512C10.4088 3.1522 10.3847 3.12099 10.3582 3.09181C10.266 2.99038 10.0686 2.90187 9.48832 2.97816C8.92508 3.0522 8.15127 3.25865 7.06606 3.54943C5.98085 3.84021 5.20749 4.04832 4.68269 4.26582C4.14199 4.48991 4.01527 4.66526 3.9862 4.79918C3.97783 4.83771 3.97255 4.87678 3.9704 4.91604C3.96303 5.05021 4.03631 5.24921 4.49847 5.60146C4.94715 5.94342 5.63841 6.33904 6.60957 6.89343L8.20632 7.80495ZM8.50007 8.90123L7.573 10.489C7.00914 11.4547 6.60831 12.143 6.39073 12.6634C6.1666 13.1996 6.20264 13.4086 6.27611 13.5211C6.2976 13.554 6.32171 13.5852 6.34822 13.6144C6.44036 13.7158 6.63778 13.8043 7.21808 13.728C7.78132 13.654 8.55513 13.4475 9.64034 13.1568C10.7255 12.866 11.4989 12.6579 12.0237 12.4404C12.5644 12.2163 12.6911 12.0409 12.7202 11.907C12.7286 11.8685 12.7338 11.8294 12.736 11.7901C12.7434 11.656 12.6701 11.457 12.2079 11.1047C11.7592 10.7628 11.068 10.3671 10.0968 9.81275L8.50007 8.90123ZM6.02061 5.36021C5.96297 5.1451 6.09062 4.92399 6.30573 4.86636L8.38299 4.30976C8.5981 4.25212 8.8192 4.37977 8.87684 4.59488C8.93448 4.80999 8.80682 5.03109 8.59172 5.08873L6.51446 5.64533C6.29935 5.70297 6.07825 5.57531 6.02061 5.36021ZM7.82956 12.1113C7.77192 11.8962 7.89957 11.6751 8.11468 11.6175L10.1919 11.0609C10.407 11.0032 10.6282 11.1309 10.6858 11.346C10.7434 11.5611 10.6158 11.7822 10.4007 11.8398L8.32341 12.3964C8.1083 12.4541 7.8872 12.3264 7.82956 12.1113Z" fill="black"/>
</g>
<defs>
<clipPath id="clip0_128_608">
<rect width="12.9032" height="12.9032" fill="white" transform="translate(0.45166 3.79114) rotate(-15)"/>
</clipPath>
</defs>
</svg>
