<svg width="25" height="24" viewBox="0 0 25 24" fill="none" xmlns="http://www.w3.org/2000/svg">
<path d="M5.47883 9.68508C3.49294 8.89073 2.5 8.49355 2.5 8C2.5 7.50645 3.49294 7.10927 5.47883 6.31492L8.2873 5.19153C10.2732 4.39718 11.2661 4 12.5 4C13.7339 4 14.7268 4.39718 16.7127 5.19153L19.5212 6.31492C21.5071 7.10927 22.5 7.50645 22.5 8C22.5 8.49355 21.5071 8.89073 19.5212 9.68508L16.7127 10.8085C14.7268 11.6028 13.7339 12 12.5 12C11.2661 12 10.2732 11.6028 8.2873 10.8085L5.47883 9.68508Z" stroke="black" stroke-width="1.5"/>
<path d="M6.26613 10L5.47883 10.3149C3.49294 11.1093 2.5 11.5065 2.5 12C2.5 12.4935 3.49294 12.8907 5.47883 13.6851L8.2873 14.8085C10.2732 15.6028 11.2661 16 12.5 16C13.7339 16 14.7268 15.6028 16.7127 14.8085L19.5212 13.6851C21.5071 12.8907 22.5 12.4935 22.5 12C22.5 11.5065 21.5071 11.1093 19.5212 10.3149L18.7339 10" stroke="black" stroke-width="1.5"/>
<path d="M6.26613 14L5.47883 14.3149C3.49294 15.1093 2.5 15.5065 2.5 16C2.5 16.4935 3.49294 16.8907 5.47883 17.6851L8.2873 18.8085C10.2732 19.6028 11.2661 20 12.5 20C13.7339 20 14.7268 19.6028 16.7127 18.8085L19.5212 17.6851C21.5071 16.8907 22.5 16.4935 22.5 16C22.5 15.5065 21.5071 15.1093 19.5212 14.3149L18.7339 14" stroke="black" stroke-width="1.5"/>
</svg>
