<svg width="78" height="19" viewBox="0 0 78 19" fill="none" xmlns="http://www.w3.org/2000/svg">
<path d="M76.546 17.6178C76.5933 17.6182 76.6402 17.609 76.6838 17.5906C76.7274 17.5722 76.7667 17.545 76.7994 17.5107C76.832 17.4765 76.8573 17.4359 76.8736 17.3915C76.8899 17.3471 76.8969 17.2998 76.8942 17.2526C76.8942 16.9936 76.7379 16.8698 76.4174 16.8698H75.8994V18.2258H76.0942V17.6347H76.3336L76.3391 17.6419L76.7106 18.2258H76.919L76.5192 17.6215L76.546 17.6178ZM76.3207 17.4819H76.0948V17.0235H76.3811C76.529 17.0235 76.6977 17.0477 76.6977 17.2413C76.6977 17.4641 76.527 17.4819 76.3195 17.4819M0.645508 2.79071H3.5213V13.2659H8.84525V15.9198H0.645508V2.79071ZM10.1167 7.01792H12.8794V15.915H10.1167V7.01792ZM11.498 2.59473C11.815 2.59478 12.1248 2.68883 12.3883 2.86496C12.6518 3.0411 12.8572 3.29142 12.9785 3.58427C13.0997 3.87712 13.1314 4.19935 13.0695 4.51022C13.0077 4.82108 12.855 5.10662 12.6309 5.33073C12.4067 5.55483 12.1212 5.70744 11.8103 5.76926C11.4994 5.83107 11.1772 5.79932 10.8844 5.67801C10.5915 5.5567 10.3412 5.35128 10.1651 5.08773C9.98906 4.82419 9.89507 4.51434 9.89507 4.19738C9.89507 3.98689 9.93654 3.77846 10.0171 3.584C10.0977 3.38954 10.2157 3.21285 10.3646 3.06403C10.5134 2.91521 10.6901 2.79716 10.8846 2.71664C11.0791 2.63611 11.2875 2.59469 11.498 2.59473ZM24.4361 2.78869H27.1988V10.635L30.3298 7.01389H33.717L30.091 11.1329L33.6407 15.9187H30.1684L27.2356 11.5208H27.1993V15.9181H24.4366L24.4361 2.78869ZM14.4112 7.01878H17.0643V8.23466H17.102C17.367 7.78065 17.7503 7.40714 18.211 7.15402C18.6718 6.9009 19.1926 6.77766 19.7179 6.79748C22.5194 6.79748 23.0352 8.64072 23.0352 11.0353V15.9144H20.2725V11.5887C20.2725 10.5562 20.2535 9.22894 18.8335 9.22894C17.3975 9.22894 17.1759 10.3533 17.1759 11.5136V15.9132H14.4132L14.4112 7.01878Z" fill="black"/>
<path d="M39.5349 10.4317C39.5402 10.2075 39.4999 9.98467 39.4165 9.77655C39.3331 9.56844 39.2084 9.37942 39.0498 9.22094C38.8912 9.06246 38.7021 8.93782 38.4939 8.85458C38.2858 8.77133 38.0628 8.73122 37.8387 8.73665C37.356 8.70662 36.8808 8.86748 36.5156 9.18456C36.1504 9.50164 35.9244 9.94953 35.8864 10.4317H39.5349ZM41.8751 14.3743C41.416 14.931 40.8389 15.3786 40.1855 15.6848C39.5321 15.9909 38.8187 16.1479 38.0971 16.1444C35.3344 16.1444 33.1226 14.3003 33.1226 11.4447C33.1226 8.58902 35.3342 6.74579 38.0971 6.74579C40.6794 6.74579 42.2987 8.58758 42.2987 11.4447V12.3109H35.8864C35.9662 12.8022 36.2209 13.248 36.6035 13.5663C36.9862 13.8846 37.4709 14.0539 37.9685 14.043C38.3617 14.0406 38.7481 13.9399 39.0925 13.75C39.4368 13.5601 39.7282 13.2871 39.9401 12.9558L41.8751 14.3743ZM48.0572 9.16861C46.6759 9.16861 45.8471 10.091 45.8471 11.4349C45.8471 12.7788 46.6756 13.702 48.0572 13.702C49.4389 13.702 50.2694 12.7811 50.2694 11.4349C50.2694 10.0886 49.4403 9.16861 48.0572 9.16861ZM52.8128 15.9133H50.2694V14.7334H50.2317C49.9126 15.1626 49.4988 15.5123 49.0224 15.7553C48.546 15.9983 48.0199 16.128 47.4851 16.1343C44.8306 16.1343 43.0821 14.2186 43.0821 11.5094C43.0821 9.02127 44.6295 6.73658 47.1732 6.73658C48.3165 6.73658 49.3845 7.04939 50.011 7.91648H50.0472V2.78793H52.8125L52.8128 15.9133ZM71.4636 15.9185H68.7009V11.592C68.7009 10.5603 68.6825 9.23221 67.264 9.23221C65.8251 9.23221 65.605 10.3563 65.605 11.5169V15.9182H62.8423V7.02119H65.4945V8.23707H65.5316C65.797 7.78325 66.1805 7.40992 66.6414 7.15683C67.1022 6.90375 67.623 6.78039 68.1484 6.79989C70.9485 6.79989 71.4648 8.64169 71.4648 11.0377L71.4636 15.9185ZM59.725 5.80503C59.4079 5.80509 59.0979 5.71111 58.8343 5.535C58.5706 5.35888 58.3651 5.10853 58.2437 4.8156C58.1223 4.52267 58.0905 4.20032 58.1523 3.88931C58.2141 3.5783 58.3667 3.29261 58.5909 3.06835C58.8151 2.8441 59.1007 2.69135 59.4117 2.62944C59.7227 2.56752 60.045 2.59921 60.338 2.7205C60.631 2.84179 60.8814 3.04724 61.0576 3.31086C61.2338 3.57447 61.3279 3.88443 61.328 4.20151C61.328 4.41205 61.2866 4.62054 61.206 4.81506C61.1255 5.00959 61.0074 5.18635 60.8586 5.33525C60.7097 5.48415 60.533 5.60228 60.3385 5.68288C60.144 5.76349 59.9356 5.80499 59.725 5.80503ZM61.1064 15.9185H58.3408V7.02119H61.1064V15.9185ZM72.8409 0.0330081H56.9525C56.5919 0.0289385 56.2444 0.168206 55.9864 0.420208C55.7285 0.672209 55.5811 1.01633 55.5767 1.37694V17.3312C55.5809 17.692 55.7282 18.0364 55.9862 18.2886C56.2442 18.5409 56.5917 18.6804 56.9525 18.6766H72.8409C73.2024 18.6811 73.551 18.542 73.81 18.2897C74.069 18.0375 74.2173 17.6927 74.2223 17.3312V1.37579C74.2171 1.01446 74.0687 0.669952 73.8097 0.417957C73.5507 0.165961 73.2023 0.0270915 72.8409 0.031857M76.3441 16.2659C76.008 16.2691 75.6868 16.4053 75.4508 16.6447C75.2149 16.8841 75.0833 17.2072 75.0849 17.5433C75.0865 17.8795 75.2212 18.2013 75.4594 18.4384C75.6977 18.6755 76.0202 18.8086 76.3563 18.8086C76.6925 18.8086 77.0149 18.6755 77.2532 18.4384C77.4914 18.2013 77.6261 17.8795 77.6277 17.5433C77.6293 17.2072 77.4978 16.8841 77.2618 16.6447C77.0258 16.4053 76.7047 16.2691 76.3685 16.2659H76.3441ZM76.3441 18.6631C76.1236 18.6667 75.907 18.605 75.7217 18.4855C75.5363 18.3661 75.3905 18.1944 75.3028 17.9921C75.215 17.7898 75.1892 17.566 75.2286 17.3491C75.268 17.1322 75.3709 16.9318 75.5242 16.7733C75.6775 16.6148 75.8743 16.5053 76.0899 16.4587C76.3054 16.4121 76.5299 16.4304 76.735 16.5114C76.94 16.5924 77.1165 16.7324 77.2421 16.9136C77.3676 17.0949 77.4366 17.3093 77.4402 17.5298V17.5485C77.4464 17.8377 77.3375 18.1175 77.1374 18.3265C76.9372 18.5354 76.6624 18.6562 76.3731 18.6625H76.3444" fill="black"/>
</svg>
