<svg width="57" height="56" viewBox="0 0 57 56" fill="none" xmlns="http://www.w3.org/2000/svg">
<path d="M26.7246 14.2393L23.0252 12.1034C19.576 10.112 15.2571 12.5625 15.1974 16.5449L15.1935 16.8025C15.1838 17.4536 15.296 18.1009 15.5243 18.7108L17.4845 23.9459C17.9454 25.1768 17.9249 26.5364 17.427 27.7529L14.8444 34.0626C14.3594 35.2473 14.3269 36.569 14.7528 37.7762L14.952 38.3405C16.007 41.3302 19.4621 42.6964 22.2765 41.2366L26.0681 39.2699C27.6488 38.45 29.5385 38.4927 31.0806 39.383L35.2899 41.8133C36.7024 42.6288 38.4149 42.737 39.9189 42.1059L40.3714 41.916C42.9913 40.8166 44.2503 37.8234 43.2041 35.1819L40.5935 28.5903C39.9676 27.0099 40.1505 25.2236 41.0839 23.8029L43.9627 19.4211C45.37 17.2791 44.6855 14.3944 42.4659 13.1129C41.4653 12.5352 40.2795 12.3686 39.1584 12.6482L30.597 14.7834C29.2845 15.1107 27.8961 14.9156 26.7246 14.2393Z" stroke="black" stroke-width="2.08758"/>
<path d="M27.1064 18.2994L24.5261 16.8097C22.1203 15.4207 19.108 17.1299 19.0663 19.9076L19.0636 20.0872C19.0568 20.5414 19.1351 20.9929 19.2943 21.4183L20.6615 25.0697C20.983 25.9283 20.9687 26.8766 20.6214 27.725L18.8201 32.126C18.4818 32.9523 18.4591 33.8742 18.7562 34.7162L18.8951 35.1098C19.631 37.1951 22.0409 38.148 24.0039 37.1298L26.6485 35.7581C27.7511 35.1862 29.0691 35.2159 30.1447 35.8369L33.0806 37.532C34.0658 38.1008 35.2603 38.1763 36.3093 37.7361L36.6249 37.6037C38.4523 36.8368 39.3305 34.7492 38.6007 32.9067L36.7798 28.3091C36.3433 27.2068 36.4709 25.9609 37.1219 24.97L39.1298 21.9137C40.1114 20.4196 39.634 18.4076 38.0859 17.5138C37.3879 17.1109 36.5608 16.9946 35.7789 17.1897L29.8074 18.6789C28.8919 18.9072 27.9235 18.7712 27.1064 18.2994Z" stroke="black" stroke-width="1.45606"/>
<path d="M27.4346 21.5735L25.7669 20.6106C24.2119 19.7129 22.2649 20.8176 22.238 22.6129L22.2363 22.729C22.2318 23.0226 22.2824 23.3144 22.3854 23.5893L23.269 25.9493C23.4768 26.5043 23.4676 27.1172 23.2431 27.6656L22.0788 30.51C21.8602 31.0441 21.8455 31.6399 22.0376 32.1842L22.1274 32.4385C22.603 33.7864 24.1606 34.4022 25.4293 33.7442L27.1386 32.8576C27.8512 32.4879 28.7031 32.5072 29.3983 32.9085L31.2959 34.0041C31.9327 34.3717 32.7047 34.4206 33.3827 34.136L33.5867 34.0504C34.7677 33.5548 35.3353 32.2055 34.8637 31.0146L33.6868 28.0431C33.4046 27.3306 33.4871 26.5253 33.9079 25.8849L35.2057 23.9095C35.8401 22.9439 35.5315 21.6434 34.5309 21.0657C34.0798 20.8053 33.5452 20.7302 33.0398 20.8562L29.1803 21.8188C28.5886 21.9663 27.9627 21.8784 27.4346 21.5735Z" stroke="black" stroke-width="0.9411"/>
</svg>
