<svg width="18" height="18" viewBox="0 0 18 18" fill="none" xmlns="http://www.w3.org/2000/svg">
<path fill-rule="evenodd" clip-rule="evenodd" d="M8.99996 1.29175C4.74276 1.29175 1.29163 4.74289 1.29163 9.00008C1.29163 10.2343 1.58123 11.3991 2.09562 12.4318C2.30208 12.8463 2.38158 13.342 2.25132 13.8288L1.75498 15.6838C1.66382 16.0245 1.97551 16.3362 2.3162 16.2451L4.17123 15.7487C4.65807 15.6185 5.15371 15.698 5.56821 15.9044C6.60096 16.4188 7.76574 16.7084 8.99996 16.7084C13.2572 16.7084 16.7083 13.2573 16.7083 9.00008C16.7083 4.74289 13.2572 1.29175 8.99996 1.29175ZM0.041626 9.00008C0.041626 4.05253 4.05241 0.041748 8.99996 0.041748C13.9475 0.041748 17.9583 4.05253 17.9583 9.00008C17.9583 13.9476 13.9475 17.9584 8.99996 17.9584C7.56804 17.9584 6.2129 17.622 5.01092 17.0233C4.83155 16.934 4.6484 16.915 4.49433 16.9562L2.63929 17.4526C1.36943 17.7924 0.207687 16.6306 0.547456 15.3607L1.0438 13.5057C1.08502 13.3516 1.06607 13.1685 0.976731 12.9891C0.378048 11.7871 0.041626 10.432 0.041626 9.00008ZM5.04163 7.75008C5.04163 7.4049 5.32145 7.12508 5.66663 7.12508H12.3333C12.6785 7.12508 12.9583 7.4049 12.9583 7.75008C12.9583 8.09526 12.6785 8.37508 12.3333 8.37508H5.66663C5.32145 8.37508 5.04163 8.09526 5.04163 7.75008ZM5.04163 10.6667C5.04163 10.3216 5.32145 10.0417 5.66663 10.0417H10.25C10.5951 10.0417 10.875 10.3216 10.875 10.6667C10.875 11.0119 10.5951 11.2917 10.25 11.2917H5.66663C5.32145 11.2917 5.04163 11.0119 5.04163 10.6667Z" fill="black"/>
</svg>
